<svg id="visual" viewBox="0 0 1920 1280" width="1920" height="1280" xmlns="http://www.w3.org/2000/svg" xmlns:xlink="http://www.w3.org/1999/xlink" version="1.1"><path d="M0 167L175 167L175 142L349 142L349 116L524 116L524 142L698 142L698 142L873 142L873 257L1047 257L1047 244L1222 244L1222 155L1396 155L1396 103L1571 103L1571 116L1745 116L1745 270L1920 270L1920 257L1920 0L1920 0L1745 0L1745 0L1571 0L1571 0L1396 0L1396 0L1222 0L1222 0L1047 0L1047 0L873 0L873 0L698 0L698 0L524 0L524 0L349 0L349 0L175 0L175 0L0 0Z" fill="#fa7268"></path><path d="M0 667L175 667L175 526L349 526L349 411L524 411L524 526L698 526L698 372L873 372L873 654L1047 654L1047 513L1222 513L1222 603L1396 603L1396 359L1571 359L1571 641L1745 641L1745 551L1920 551L1920 539L1920 255L1920 268L1745 268L1745 114L1571 114L1571 101L1396 101L1396 153L1222 153L1222 242L1047 242L1047 255L873 255L873 140L698 140L698 140L524 140L524 114L349 114L349 140L175 140L175 165L0 165Z" fill="#ea5e66"></path><path d="M0 743L175 743L175 743L349 743L349 590L524 590L524 628L698 628L698 551L873 551L873 769L1047 769L1047 667L1222 667L1222 820L1396 820L1396 487L1571 487L1571 795L1745 795L1745 667L1920 667L1920 654L1920 537L1920 549L1745 549L1745 639L1571 639L1571 357L1396 357L1396 601L1222 601L1222 511L1047 511L1047 652L873 652L873 370L698 370L698 524L524 524L524 409L349 409L349 524L175 524L175 665L0 665Z" fill="#d84a64"></path><path d="M0 923L175 923L175 948L349 948L349 1153L524 1153L524 1153L698 1153L698 935L873 935L873 974L1047 974L1047 987L1222 987L1222 961L1396 961L1396 910L1571 910L1571 1051L1745 1051L1745 1089L1920 1089L1920 999L1920 652L1920 665L1745 665L1745 793L1571 793L1571 485L1396 485L1396 818L1222 818L1222 665L1047 665L1047 767L873 767L873 549L698 549L698 626L524 626L524 588L349 588L349 741L175 741L175 741L0 741Z" fill="#c53762"></path><path d="M0 1281L175 1281L175 1281L349 1281L349 1281L524 1281L524 1281L698 1281L698 1281L873 1281L873 1281L1047 1281L1047 1281L1222 1281L1222 1281L1396 1281L1396 1281L1571 1281L1571 1281L1745 1281L1745 1281L1920 1281L1920 1281L1920 997L1920 1087L1745 1087L1745 1049L1571 1049L1571 908L1396 908L1396 959L1222 959L1222 985L1047 985L1047 972L873 972L873 933L698 933L698 1151L524 1151L524 1151L349 1151L349 946L175 946L175 921L0 921Z" fill="#b0235f"></path></svg>